{
	"asset":{
		"version":"2.0",
		"generator":"Created using the official Cinema 4D glTF Exporter 1.000x283854"
	},
	"scenes":[{
		"nodes":[0]
	}],
	"nodes":[{
		"name":"Model",
		"translation":[0,
		0,
		0],
		"rotation":[0,
		0,
		0,
		-1],
		"scale":[1,
		1,
		-1],
		"children":[1,
		2,
		6,
		9,
		12]
	},
	{
		"name":"Tubes",
		"translation":[-235.795,
		20.412,
		3.296],
		"rotation":[0,
		0,
		0,
		-1],
		"scale":[1,
		1,
		1],
		"mesh":0
	},
	{
		"name":"Themes",
		"translation":[-0.176,
		-5.103,
		596.691],
		"rotation":[0,
		0,
		0,
		-1],
		"scale":[1,
		1,
		1],
		"children":[3,
		4,
		5]
	},
	{
		"name":"Block Above",
		"translation":[-2.242,
		84.899,
		5.893],
		"rotation":[0,
		0,
		0,
		-1],
		"scale":[1,
		1,
		1],
		"mesh":1
	},
	{
		"name":"Logos",
		"translation":[3.296,
		140.188,
		-6.099],
		"rotation":[0,
		0,
		0,
		-1],
		"scale":[1,
		1,
		1],
		"mesh":2
	},
	{
		"name":"base",
		"translation":[0,
		25,
		0],
		"rotation":[0,
		0,
		0,
		-1],
		"scale":[1,
		1,
		1],
		"mesh":3
	},
	{
		"name":"Config",
		"translation":[-597.176,
		-5.103,
		-0.309],
		"rotation":[0,
		0,
		0,
		-1],
		"scale":[1,
		1,
		1],
		"children":[7,
		8]
	},
	{
		"name":"Braces",
		"translation":[1.851,
		64.562,
		1.408],
		"rotation":[0,
		0,
		0,
		-1],
		"scale":[1,
		1,
		1],
		"mesh":4
	},
	{
		"name":"base",
		"translation":[0,
		25,
		0],
		"rotation":[0,
		0,
		0,
		-1],
		"scale":[1,
		1,
		1],
		"mesh":5
	},
	{
		"name":"Data",
		"translation":[-0.176,
		-5.103,
		-597.309],
		"rotation":[0,
		0,
		0,
		-1],
		"scale":[1,
		1,
		1],
		"children":[10,
		11]
	},
	{
		"name":"Database",
		"translation":[-3.052,
		113.021,
		-5.987],
		"rotation":[0,
		0,
		0,
		-1],
		"scale":[1,
		1,
		1],
		"mesh":6
	},
	{
		"name":"base",
		"translation":[0,
		25,
		0],
		"rotation":[0,
		0,
		0,
		-1],
		"scale":[1,
		1,
		1],
		"mesh":7
	},
	{
		"name":"Middle",
		"translation":[-0.176,
		-5.103,
		-0.309],
		"rotation":[0,
		0,
		0,
		-1],
		"scale":[1,
		1,
		1],
		"children":[13,
		25,
		26]
	},
	{
		"name":"Belt",
		"translation":[538.006,
		53.064,
		-6.795],
		"rotation":[0,
		0,
		0,
		-1],
		"scale":[1,
		1,
		1],
		"children":[14,
		18,
		24]
	},
	{
		"name":"Single Shapes",
		"translation":[-208.373,
		35.776,
		-2.157],
		"rotation":[0.707,
		0,
		0,
		-0.707],
		"scale":[1,
		1,
		1],
		"children":[15,
		16,
		17]
	},
	{
		"name":"Triangle.1",
		"translation":[122.041,
		-0.464,
		6.707],
		"rotation":[-0.707,
		0,
		0,
		-0.707],
		"scale":[1,
		1,
		1],
		"mesh":8
	},
	{
		"name":"Hexagon.1",
		"translation":[4.74,
		-0.481,
		6.707],
		"rotation":[-0.707,
		0,
		0,
		-0.707],
		"scale":[1,
		1,
		1],
		"mesh":9
	},
	{
		"name":"Rectangle.1",
		"translation":[-113.281,
		0.945,
		7.238],
		"rotation":[-0.707,
		0,
		0,
		-0.707],
		"scale":[1,
		1,
		1],
		"mesh":10
	},
	{
		"name":"Plate",
		"translation":[57.418,
		45.543,
		-7.477],
		"rotation":[0,
		0,
		0,
		-1],
		"scale":[1,
		1,
		1],
		"children":[19,
		20,
		21,
		22,
		23]
	},
	{
		"name":"Triangle",
		"translation":[26.897,
		6.026,
		-34.509],
		"rotation":[0,
		0,
		0,
		-1],
		"scale":[1,
		1,
		1],
		"mesh":11
	},
	{
		"name":"Triangle.1",
		"translation":[-30.098,
		6.026,
		31.771],
		"rotation":[0,
		0,
		0,
		-1],
		"scale":[1,
		1,
		1],
		"mesh":12
	},
	{
		"name":"Hexagon.1",
		"translation":[29.537,
		6.943,
		21.27],
		"rotation":[0,
		0,
		0,
		-1],
		"scale":[1,
		1,
		1],
		"mesh":13
	},
	{
		"name":"Rectangle",
		"translation":[-28.123,
		6.665,
		-21.598],
		"rotation":[0,
		0,
		0,
		-1],
		"scale":[1,
		1,
		1],
		"mesh":14
	},
	{
		"name":"Rectangle-Base.1",
		"translation":[2.39,
		-7.044,
		3.614],
		"rotation":[0,
		0,
		0,
		-1],
		"scale":[1,
		1,
		1],
		"mesh":15
	},
	{
		"name":"Belt",
		"translation":[-134.573,
		-8.957,
		-0.408],
		"rotation":[0,
		0,
		0,
		-1],
		"scale":[1,
		1,
		1],
		"mesh":16
	},
	{
		"name":"Logo",
		"translation":[9.596,
		497.033,
		15.452],
		"rotation":[0,
		0,
		0,
		-1],
		"scale":[1,
		1,
		1],
		"mesh":17
	},
	{
		"name":"Block",
		"translation":[0,
		150,
		0],
		"rotation":[0,
		0,
		0,
		-1],
		"scale":[1,
		1,
		1],
		"mesh":18
	}],
	"meshes":[{
		"primitives":[{
			"attributes":{
				"POSITION":1,
				"NORMAL":2,
				"TEXCOORD_0":3
			},
			"indices":0,
			"material":0
		}]
	},
	{
		"primitives":[{
			"attributes":{
				"POSITION":5,
				"NORMAL":6,
				"TEXCOORD_0":7
			},
			"indices":4,
			"material":0
		}]
	},
	{
		"primitives":[{
			"attributes":{
				"POSITION":9,
				"NORMAL":10,
				"TEXCOORD_0":11
			},
			"indices":8,
			"material":1
		}]
	},
	{
		"primitives":[{
			"attributes":{
				"POSITION":13,
				"NORMAL":14,
				"TEXCOORD_0":15
			},
			"indices":12,
			"material":2
		}]
	},
	{
		"primitives":[{
			"attributes":{
				"POSITION":17,
				"NORMAL":18,
				"TEXCOORD_0":19
			},
			"indices":16,
			"material":3
		}]
	},
	{
		"primitives":[{
			"attributes":{
				"POSITION":21,
				"NORMAL":22,
				"TEXCOORD_0":23
			},
			"indices":20,
			"material":2
		}]
	},
	{
		"primitives":[{
			"attributes":{
				"POSITION":25,
				"NORMAL":26,
				"TEXCOORD_0":27
			},
			"indices":24,
			"material":4
		}]
	},
	{
		"primitives":[{
			"attributes":{
				"POSITION":29,
				"NORMAL":30,
				"TEXCOORD_0":31
			},
			"indices":28,
			"material":2
		}]
	},
	{
		"primitives":[{
			"attributes":{
				"POSITION":33,
				"NORMAL":34,
				"TEXCOORD_0":35
			},
			"indices":32,
			"material":5
		}]
	},
	{
		"primitives":[{
			"attributes":{
				"POSITION":37,
				"NORMAL":38,
				"TEXCOORD_0":39
			},
			"indices":36,
			"material":6
		}]
	},
	{
		"primitives":[{
			"attributes":{
				"POSITION":41,
				"NORMAL":42,
				"TEXCOORD_0":43
			},
			"indices":40,
			"material":7
		}]
	},
	{
		"primitives":[{
			"attributes":{
				"POSITION":45,
				"NORMAL":46,
				"TEXCOORD_0":47
			},
			"indices":44,
			"material":5
		}]
	},
	{
		"primitives":[{
			"attributes":{
				"POSITION":49,
				"NORMAL":50,
				"TEXCOORD_0":51
			},
			"indices":48,
			"material":5
		}]
	},
	{
		"primitives":[{
			"attributes":{
				"POSITION":53,
				"NORMAL":54,
				"TEXCOORD_0":55
			},
			"indices":52,
			"material":6
		}]
	},
	{
		"primitives":[{
			"attributes":{
				"POSITION":57,
				"NORMAL":58,
				"TEXCOORD_0":59
			},
			"indices":56,
			"material":7
		}]
	},
	{
		"primitives":[{
			"attributes":{
				"POSITION":61,
				"NORMAL":62,
				"TEXCOORD_0":63
			},
			"indices":60,
			"material":0
		}]
	},
	{
		"primitives":[{
			"attributes":{
				"POSITION":65,
				"NORMAL":66,
				"TEXCOORD_0":67
			},
			"indices":64,
			"material":2
		}]
	},
	{
		"primitives":[{
			"attributes":{
				"POSITION":69,
				"NORMAL":70,
				"TEXCOORD_0":71
			},
			"indices":68,
			"material":1
		}]
	},
	{
		"primitives":[{
			"attributes":{
				"POSITION":73,
				"NORMAL":74,
				"TEXCOORD_0":75
			},
			"indices":72,
			"material":0
		}]
	}],
	"accessors":[{
		"bufferView":0,
		"type":"SCALAR",
		"max":[1319],
		"componentType":5123,
		"count":3888,
		"byteOffset":0,
		"min":[0]
	},
	{
		"bufferView":1,
		"type":"VEC3",
		"max":[247.658,
		8.1,
		487.215],
		"componentType":5126,
		"count":1320,
		"byteOffset":0,
		"min":[-247.658,
		-8.1,
		-487.215]
	},
	{
		"bufferView":1,
		"type":"VEC3",
		"max":[1,
		1,
		1],
		"componentType":5126,
		"count":1320,
		"byteOffset":12,
		"min":[-1,
		-1,
		-1]
	},
	{
		"bufferView":1,
		"type":"VEC2",
		"max":[1,
		1],
		"componentType":5126,
		"count":1320,
		"byteOffset":24,
		"min":[0,
		0]
	},
	{
		"bufferView":2,
		"type":"SCALAR",
		"max":[5562],
		"componentType":5123,
		"count":24600,
		"byteOffset":0,
		"min":[0]
	},
	{
		"bufferView":3,
		"type":"VEC3",
		"max":[101.09,
		36.456,
		101.188],
		"componentType":5126,
		"count":5563,
		"byteOffset":0,
		"min":[-101.09,
		-36.456,
		-101.188]
	},
	{
		"bufferView":3,
		"type":"VEC3",
		"max":[1,
		1,
		1],
		"componentType":5126,
		"count":5563,
		"byteOffset":12,
		"min":[-1,
		-1,
		-1]
	},
	{
		"bufferView":3,
		"type":"VEC2",
		"max":[1,
		1],
		"componentType":5126,
		"count":5563,
		"byteOffset":24,
		"min":[0,
		0]
	},
	{
		"bufferView":4,
		"type":"SCALAR",
		"max":[2015],
		"componentType":5123,
		"count":5832,
		"byteOffset":0,
		"min":[0]
	},
	{
		"bufferView":5,
		"type":"VEC3",
		"max":[83.534,
		56.803,
		70.207],
		"componentType":5126,
		"count":2016,
		"byteOffset":0,
		"min":[-83.534,
		-56.803,
		-70.207]
	},
	{
		"bufferView":5,
		"type":"VEC3",
		"max":[1,
		1,
		1],
		"componentType":5126,
		"count":2016,
		"byteOffset":12,
		"min":[-1,
		-1,
		-1]
	},
	{
		"bufferView":5,
		"type":"VEC2",
		"max":[1,
		1],
		"componentType":5126,
		"count":2016,
		"byteOffset":24,
		"min":[0,
		0]
	},
	{
		"bufferView":6,
		"type":"SCALAR",
		"max":[1036],
		"componentType":5123,
		"count":4740,
		"byteOffset":0,
		"min":[0]
	},
	{
		"bufferView":7,
		"type":"VEC3",
		"max":[125,
		25,
		125],
		"componentType":5126,
		"count":1037,
		"byteOffset":0,
		"min":[-125,
		-25,
		-125]
	},
	{
		"bufferView":7,
		"type":"VEC3",
		"max":[1,
		1,
		1],
		"componentType":5126,
		"count":1037,
		"byteOffset":12,
		"min":[-1,
		-1,
		-1]
	},
	{
		"bufferView":7,
		"type":"VEC2",
		"max":[1,
		1],
		"componentType":5126,
		"count":1037,
		"byteOffset":24,
		"min":[0,
		0]
	},
	{
		"bufferView":8,
		"type":"SCALAR",
		"max":[4381],
		"componentType":5123,
		"count":18024,
		"byteOffset":0,
		"min":[0]
	},
	{
		"bufferView":9,
		"type":"VEC3",
		"max":[97.234,
		17.103,
		81.185],
		"componentType":5126,
		"count":4382,
		"byteOffset":0,
		"min":[-97.234,
		-17.103,
		-81.185]
	},
	{
		"bufferView":9,
		"type":"VEC3",
		"max":[1,
		1,
		1],
		"componentType":5126,
		"count":4382,
		"byteOffset":12,
		"min":[-1,
		-1,
		-1]
	},
	{
		"bufferView":9,
		"type":"VEC2",
		"max":[1,
		1],
		"componentType":5126,
		"count":4382,
		"byteOffset":24,
		"min":[0,
		0]
	},
	{
		"bufferView":10,
		"type":"SCALAR",
		"max":[1036],
		"componentType":5123,
		"count":4740,
		"byteOffset":0,
		"min":[0]
	},
	{
		"bufferView":11,
		"type":"VEC3",
		"max":[125,
		25,
		125],
		"componentType":5126,
		"count":1037,
		"byteOffset":0,
		"min":[-125,
		-25,
		-125]
	},
	{
		"bufferView":11,
		"type":"VEC3",
		"max":[1,
		1,
		1],
		"componentType":5126,
		"count":1037,
		"byteOffset":12,
		"min":[-1,
		-1,
		-1]
	},
	{
		"bufferView":11,
		"type":"VEC2",
		"max":[1,
		1],
		"componentType":5126,
		"count":1037,
		"byteOffset":24,
		"min":[0,
		0]
	},
	{
		"bufferView":12,
		"type":"SCALAR",
		"max":[5887],
		"componentType":5123,
		"count":26880,
		"byteOffset":0,
		"min":[0]
	},
	{
		"bufferView":13,
		"type":"VEC3",
		"max":[100.391,
		64.855,
		104.229],
		"componentType":5126,
		"count":5888,
		"byteOffset":0,
		"min":[-100.391,
		-64.855,
		-104.229]
	},
	{
		"bufferView":13,
		"type":"VEC3",
		"max":[1,
		1,
		1],
		"componentType":5126,
		"count":5888,
		"byteOffset":12,
		"min":[-1,
		-1,
		-1]
	},
	{
		"bufferView":13,
		"type":"VEC2",
		"max":[1,
		1],
		"componentType":5126,
		"count":5888,
		"byteOffset":24,
		"min":[0,
		0]
	},
	{
		"bufferView":14,
		"type":"SCALAR",
		"max":[1036],
		"componentType":5123,
		"count":4740,
		"byteOffset":0,
		"min":[0]
	},
	{
		"bufferView":15,
		"type":"VEC3",
		"max":[125,
		25,
		125],
		"componentType":5126,
		"count":1037,
		"byteOffset":0,
		"min":[-125,
		-25,
		-125]
	},
	{
		"bufferView":15,
		"type":"VEC3",
		"max":[1,
		1,
		1],
		"componentType":5126,
		"count":1037,
		"byteOffset":12,
		"min":[-1,
		-1,
		-1]
	},
	{
		"bufferView":15,
		"type":"VEC2",
		"max":[1,
		1],
		"componentType":5126,
		"count":1037,
		"byteOffset":24,
		"min":[0,
		0]
	},
	{
		"bufferView":16,
		"type":"SCALAR",
		"max":[77],
		"componentType":5123,
		"count":204,
		"byteOffset":0,
		"min":[0]
	},
	{
		"bufferView":17,
		"type":"VEC3",
		"max":[40.5,
		12,
		46.765],
		"componentType":5126,
		"count":78,
		"byteOffset":0,
		"min":[-40.5,
		-12,
		-46.765]
	},
	{
		"bufferView":17,
		"type":"VEC3",
		"max":[0.5,
		1,
		0.866],
		"componentType":5126,
		"count":78,
		"byteOffset":12,
		"min":[-1,
		-1,
		-0.866]
	},
	{
		"bufferView":17,
		"type":"VEC2",
		"max":[1,
		1],
		"componentType":5126,
		"count":78,
		"byteOffset":24,
		"min":[0,
		0]
	},
	{
		"bufferView":18,
		"type":"SCALAR",
		"max":[117],
		"componentType":5123,
		"count":420,
		"byteOffset":0,
		"min":[0]
	},
	{
		"bufferView":19,
		"type":"VEC3",
		"max":[52.309,
		12,
		45.301],
		"componentType":5126,
		"count":118,
		"byteOffset":0,
		"min":[-52.309,
		-12,
		-45.301]
	},
	{
		"bufferView":19,
		"type":"VEC3",
		"max":[0.982,
		1,
		1],
		"componentType":5126,
		"count":118,
		"byteOffset":12,
		"min":[-0.982,
		-1,
		-1]
	},
	{
		"bufferView":19,
		"type":"VEC2",
		"max":[1,
		1],
		"componentType":5126,
		"count":118,
		"byteOffset":24,
		"min":[0,
		0]
	},
	{
		"bufferView":20,
		"type":"SCALAR",
		"max":[1280],
		"componentType":5123,
		"count":5172,
		"byteOffset":0,
		"min":[0]
	},
	{
		"bufferView":21,
		"type":"VEC3",
		"max":[42,
		12,
		42],
		"componentType":5126,
		"count":1281,
		"byteOffset":0,
		"min":[-42,
		-12,
		-42]
	},
	{
		"bufferView":21,
		"type":"VEC3",
		"max":[1,
		1,
		1],
		"componentType":5126,
		"count":1281,
		"byteOffset":12,
		"min":[-1,
		-1,
		-1]
	},
	{
		"bufferView":21,
		"type":"VEC2",
		"max":[1,
		1],
		"componentType":5126,
		"count":1281,
		"byteOffset":24,
		"min":[0,
		0]
	},
	{
		"bufferView":22,
		"type":"SCALAR",
		"max":[77],
		"componentType":5123,
		"count":204,
		"byteOffset":0,
		"min":[0]
	},
	{
		"bufferView":23,
		"type":"VEC3",
		"max":[18.676,
		4.8,
		16.704],
		"componentType":5126,
		"count":78,
		"byteOffset":0,
		"min":[-18.676,
		-4.8,
		-16.704]
	},
	{
		"bufferView":23,
		"type":"VEC3",
		"max":[0.893,
		1,
		0.548],
		"componentType":5126,
		"count":78,
		"byteOffset":12,
		"min":[-0.836,
		-1,
		-0.998]
	},
	{
		"bufferView":23,
		"type":"VEC2",
		"max":[1,
		1],
		"componentType":5126,
		"count":78,
		"byteOffset":24,
		"min":[0,
		0]
	},
	{
		"bufferView":24,
		"type":"SCALAR",
		"max":[77],
		"componentType":5123,
		"count":204,
		"byteOffset":0,
		"min":[0]
	},
	{
		"bufferView":25,
		"type":"VEC3",
		"max":[18.588,
		4.8,
		17.149],
		"componentType":5126,
		"count":78,
		"byteOffset":0,
		"min":[-18.588,
		-4.8,
		-17.149]
	},
	{
		"bufferView":25,
		"type":"VEC3",
		"max":[0.804,
		1,
		0.994],
		"componentType":5126,
		"count":78,
		"byteOffset":12,
		"min":[-0.917,
		-1,
		-0.594]
	},
	{
		"bufferView":25,
		"type":"VEC2",
		"max":[1,
		1],
		"componentType":5126,
		"count":78,
		"byteOffset":24,
		"min":[0,
		0]
	},
	{
		"bufferView":26,
		"type":"SCALAR",
		"max":[115],
		"componentType":5123,
		"count":420,
		"byteOffset":0,
		"min":[0]
	},
	{
		"bufferView":27,
		"type":"VEC3",
		"max":[31.366,
		7.56,
		32.218],
		"componentType":5126,
		"count":116,
		"byteOffset":0,
		"min":[-31.366,
		-7.56,
		-32.218]
	},
	{
		"bufferView":27,
		"type":"VEC3",
		"max":[0.978,
		1,
		1],
		"componentType":5126,
		"count":116,
		"byteOffset":12,
		"min":[-0.978,
		-1,
		-1]
	},
	{
		"bufferView":27,
		"type":"VEC2",
		"max":[1,
		1],
		"componentType":5126,
		"count":116,
		"byteOffset":24,
		"min":[0,
		0]
	},
	{
		"bufferView":28,
		"type":"SCALAR",
		"max":[1280],
		"componentType":5123,
		"count":5172,
		"byteOffset":0,
		"min":[0]
	},
	{
		"bufferView":29,
		"type":"VEC3",
		"max":[29.394,
		7.2,
		29.394],
		"componentType":5126,
		"count":1281,
		"byteOffset":0,
		"min":[-29.394,
		-7.2,
		-29.394]
	},
	{
		"bufferView":29,
		"type":"VEC3",
		"max":[1,
		1,
		1],
		"componentType":5126,
		"count":1281,
		"byteOffset":12,
		"min":[-1,
		-1,
		-1]
	},
	{
		"bufferView":29,
		"type":"VEC2",
		"max":[1,
		1],
		"componentType":5126,
		"count":1281,
		"byteOffset":24,
		"min":[0,
		0]
	},
	{
		"bufferView":30,
		"type":"SCALAR",
		"max":[1277],
		"componentType":5123,
		"count":5172,
		"byteOffset":0,
		"min":[0]
	},
	{
		"bufferView":31,
		"type":"VEC3",
		"max":[67.2,
		8.2,
		67.2],
		"componentType":5126,
		"count":1278,
		"byteOffset":0,
		"min":[-67.2,
		-8.2,
		-67.2]
	},
	{
		"bufferView":31,
		"type":"VEC3",
		"max":[1,
		1,
		1],
		"componentType":5126,
		"count":1278,
		"byteOffset":12,
		"min":[-1,
		-1,
		-1]
	},
	{
		"bufferView":31,
		"type":"VEC2",
		"max":[1,
		1],
		"componentType":5126,
		"count":1278,
		"byteOffset":24,
		"min":[0,
		0]
	},
	{
		"bufferView":32,
		"type":"SCALAR",
		"max":[1307],
		"componentType":5123,
		"count":3840,
		"byteOffset":0,
		"min":[0]
	},
	{
		"bufferView":33,
		"type":"VEC3",
		"max":[305.006,
		34.999,
		75],
		"componentType":5126,
		"count":1308,
		"byteOffset":0,
		"min":[-305.006,
		-34.999,
		-75]
	},
	{
		"bufferView":33,
		"type":"VEC3",
		"max":[1,
		1,
		1],
		"componentType":5126,
		"count":1308,
		"byteOffset":12,
		"min":[-1,
		-1,
		-1]
	},
	{
		"bufferView":33,
		"type":"VEC2",
		"max":[1,
		1],
		"componentType":5126,
		"count":1308,
		"byteOffset":24,
		"min":[0,
		0]
	},
	{
		"bufferView":34,
		"type":"SCALAR",
		"max":[671],
		"componentType":5123,
		"count":1944,
		"byteOffset":0,
		"min":[0]
	},
	{
		"bufferView":35,
		"type":"VEC3",
		"max":[114.481,
		114.481,
		7.56],
		"componentType":5126,
		"count":672,
		"byteOffset":0,
		"min":[-114.481,
		-114.481,
		-7.56]
	},
	{
		"bufferView":35,
		"type":"VEC3",
		"max":[1,
		1,
		1],
		"componentType":5126,
		"count":672,
		"byteOffset":12,
		"min":[-1,
		-1,
		-1]
	},
	{
		"bufferView":35,
		"type":"VEC2",
		"max":[1,
		1],
		"componentType":5126,
		"count":672,
		"byteOffset":24,
		"min":[0,
		0]
	},
	{
		"bufferView":36,
		"type":"SCALAR",
		"max":[4096],
		"componentType":5123,
		"count":18276,
		"byteOffset":0,
		"min":[0]
	},
	{
		"bufferView":37,
		"type":"VEC3",
		"max":[205,
		155,
		205],
		"componentType":5126,
		"count":4097,
		"byteOffset":0,
		"min":[-205,
		-155,
		-205]
	},
	{
		"bufferView":37,
		"type":"VEC3",
		"max":[1,
		1,
		1],
		"componentType":5126,
		"count":4097,
		"byteOffset":12,
		"min":[-1,
		-1,
		-1]
	},
	{
		"bufferView":37,
		"type":"VEC2",
		"max":[1,
		1],
		"componentType":5126,
		"count":4097,
		"byteOffset":24,
		"min":[0,
		0]
	}],
	"bufferViews":[{
		"buffer":0,
		"byteOffset":0,
		"byteLength":7776,
		"target":34963
	},
	{
		"buffer":0,
		"byteOffset":7776,
		"byteLength":42240,
		"target":34962,
		"byteStride":32
	},
	{
		"buffer":1,
		"byteOffset":0,
		"byteLength":49200,
		"target":34963
	},
	{
		"buffer":1,
		"byteOffset":49200,
		"byteLength":178016,
		"target":34962,
		"byteStride":32
	},
	{
		"buffer":2,
		"byteOffset":0,
		"byteLength":11664,
		"target":34963
	},
	{
		"buffer":2,
		"byteOffset":11664,
		"byteLength":64512,
		"target":34962,
		"byteStride":32
	},
	{
		"buffer":3,
		"byteOffset":0,
		"byteLength":9480,
		"target":34963
	},
	{
		"buffer":3,
		"byteOffset":9480,
		"byteLength":33184,
		"target":34962,
		"byteStride":32
	},
	{
		"buffer":4,
		"byteOffset":0,
		"byteLength":36048,
		"target":34963
	},
	{
		"buffer":4,
		"byteOffset":36048,
		"byteLength":140224,
		"target":34962,
		"byteStride":32
	},
	{
		"buffer":5,
		"byteOffset":0,
		"byteLength":9480,
		"target":34963
	},
	{
		"buffer":5,
		"byteOffset":9480,
		"byteLength":33184,
		"target":34962,
		"byteStride":32
	},
	{
		"buffer":6,
		"byteOffset":0,
		"byteLength":53760,
		"target":34963
	},
	{
		"buffer":6,
		"byteOffset":53760,
		"byteLength":188416,
		"target":34962,
		"byteStride":32
	},
	{
		"buffer":7,
		"byteOffset":0,
		"byteLength":9480,
		"target":34963
	},
	{
		"buffer":7,
		"byteOffset":9480,
		"byteLength":33184,
		"target":34962,
		"byteStride":32
	},
	{
		"buffer":8,
		"byteOffset":0,
		"byteLength":408,
		"target":34963
	},
	{
		"buffer":8,
		"byteOffset":408,
		"byteLength":2496,
		"target":34962,
		"byteStride":32
	},
	{
		"buffer":9,
		"byteOffset":0,
		"byteLength":840,
		"target":34963
	},
	{
		"buffer":9,
		"byteOffset":840,
		"byteLength":3776,
		"target":34962,
		"byteStride":32
	},
	{
		"buffer":10,
		"byteOffset":0,
		"byteLength":10344,
		"target":34963
	},
	{
		"buffer":10,
		"byteOffset":10344,
		"byteLength":40992,
		"target":34962,
		"byteStride":32
	},
	{
		"buffer":11,
		"byteOffset":0,
		"byteLength":408,
		"target":34963
	},
	{
		"buffer":11,
		"byteOffset":408,
		"byteLength":2496,
		"target":34962,
		"byteStride":32
	},
	{
		"buffer":12,
		"byteOffset":0,
		"byteLength":408,
		"target":34963
	},
	{
		"buffer":12,
		"byteOffset":408,
		"byteLength":2496,
		"target":34962,
		"byteStride":32
	},
	{
		"buffer":13,
		"byteOffset":0,
		"byteLength":840,
		"target":34963
	},
	{
		"buffer":13,
		"byteOffset":840,
		"byteLength":3712,
		"target":34962,
		"byteStride":32
	},
	{
		"buffer":14,
		"byteOffset":0,
		"byteLength":10344,
		"target":34963
	},
	{
		"buffer":14,
		"byteOffset":10344,
		"byteLength":40992,
		"target":34962,
		"byteStride":32
	},
	{
		"buffer":15,
		"byteOffset":0,
		"byteLength":10344,
		"target":34963
	},
	{
		"buffer":15,
		"byteOffset":10344,
		"byteLength":40896,
		"target":34962,
		"byteStride":32
	},
	{
		"buffer":16,
		"byteOffset":0,
		"byteLength":7680,
		"target":34963
	},
	{
		"buffer":16,
		"byteOffset":7680,
		"byteLength":41856,
		"target":34962,
		"byteStride":32
	},
	{
		"buffer":17,
		"byteOffset":0,
		"byteLength":3888,
		"target":34963
	},
	{
		"buffer":17,
		"byteOffset":3888,
		"byteLength":21504,
		"target":34962,
		"byteStride":32
	},
	{
		"buffer":18,
		"byteOffset":0,
		"byteLength":36552,
		"target":34963
	},
	{
		"buffer":18,
		"byteOffset":36552,
		"byteLength":131104,
		"target":34962,
		"byteStride":32
	}],
	"buffers":[{
		"uri":"data:application/octet-stream;base64,",
		"byteLength":50016
	},
	{
		"uri":"data:application/octet-stream;base64,",
		"byteLength":227216
	},
	{
		"uri":"data:application/octet-stream;base64,",
		"byteLength":76176
	},
	{
		"uri":"data:application/octet-stream;base64,",
		"byteLength":42664
	},
	{
		"uri":"data:application/octet-stream;base64,",
		"byteLength":176272
	},
	{
		"uri":"data:application/octet-stream;base64,",
		"byteLength":42664
	},
	{
		"uri":"data:application/octet-stream;base64,",
		"byteLength":242176
	},
	{
		"uri":"data:application/octet-stream;base64,",
		"byteLength":42664
	},
	{
		"uri":"data:application/octet-stream;base64,",
		"byteLength":2904
	},
	{
		"uri":"data:application/octet-stream;base64,",
		"byteLength":4616
	},
	{
		"uri":"data:application/octet-stream;base64,",
		"byteLength":51336
	},
	{
		"uri":"data:application/octet-stream;base64,",
		"byteLength":2904
	},
	{
		"uri":"data:application/octet-stream;base64,",
		"byteLength":2904
	},
	{
		"uri":"data:application/octet-stream;base64,",
		"byteLength":4552
	},
	{
		"uri":"data:application/octet-stream;base64,",
		"byteLength":51336
	},
	{
		"uri":"data:application/octet-stream;base64,",
		"byteLength":51240
	},
	{
		"uri":"data:application/octet-stream;base64,",
		"byteLength":49536
	},
	{
		"uri":"data:application/octet-stream;base64,",
		"byteLength":25392
	},
	{
		"uri":"data:application/octet-stream;base64,",
		"byteLength":167656
	}],
	"materials":[{
		"pbrMetallicRoughness":{
			"baseColorFactor":[0.162,
			0.147,
			0.183,
			1],
			"metallicFactor":0,
			"roughnessFactor":0.5
		},
		"emissiveFactor":[0,
		0,
		0],
		"alphaMode":"OPAQUE",
		"doubleSided":false,
		"name":"Gray"
	},
	{
		"pbrMetallicRoughness":{
			"baseColorFactor":[0.4,
			0.2,
			0.6,
			1],
			"metallicFactor":0,
			"roughnessFactor":0.5
		},
		"emissiveFactor":[0,
		0,
		0],
		"alphaMode":"OPAQUE",
		"doubleSided":false,
		"name":"Gatsby"
	},
	{
		"pbrMetallicRoughness":{
			"baseColorFactor":[0.284,
			0.261,
			0.334,
			1],
			"metallicFactor":0,
			"roughnessFactor":0.5
		},
		"emissiveFactor":[0,
		0,
		0],
		"alphaMode":"OPAQUE",
		"doubleSided":false,
		"name":"Plurble"
	},
	{
		"pbrMetallicRoughness":{
			"baseColorFactor":[0.216,
			0.714,
			0.208,
			1],
			"metallicFactor":0,
			"roughnessFactor":0.5
		},
		"emissiveFactor":[0,
		0,
		0],
		"alphaMode":"OPAQUE",
		"doubleSided":false,
		"name":"Green"
	},
	{
		"pbrMetallicRoughness":{
			"baseColorFactor":[1,
			0.698,
			0.22,
			1],
			"metallicFactor":0,
			"roughnessFactor":0.5
		},
		"emissiveFactor":[0,
		0,
		0],
		"alphaMode":"OPAQUE",
		"doubleSided":false,
		"name":"Orange"
	},
	{
		"pbrMetallicRoughness":{
			"baseColorFactor":[0.737,
			0.008,
			0.498,
			1],
			"metallicFactor":0,
			"roughnessFactor":0.5
		},
		"emissiveFactor":[0,
		0,
		0],
		"alphaMode":"OPAQUE",
		"doubleSided":false,
		"name":"Magenta"
	},
	{
		"pbrMetallicRoughness":{
			"baseColorFactor":[0.98,
			0.161,
			0.082,
			1],
			"metallicFactor":0,
			"roughnessFactor":0.5
		},
		"emissiveFactor":[0,
		0,
		0],
		"alphaMode":"OPAQUE",
		"doubleSided":false,
		"name":"Red"
	},
	{
		"pbrMetallicRoughness":{
			"baseColorFactor":[0.051,
			0.588,
			0.949,
			1],
			"metallicFactor":0,
			"roughnessFactor":0.5
		},
		"emissiveFactor":[0,
		0,
		0],
		"alphaMode":"OPAQUE",
		"doubleSided":false,
		"name":"Blue"
	}]
}